<svg width="31" height="31" viewBox="0 0 31 31" fill="none" xmlns="http://www.w3.org/2000/svg">
<path d="M15.5088 20.4656C17.5656 20.4656 19.233 18.7983 19.233 16.7415C19.233 14.6847 17.5656 13.0173 15.5088 13.0173C13.452 13.0173 11.7847 14.6847 11.7847 16.7415C11.7847 18.7983 13.452 20.4656 15.5088 20.4656Z" stroke="white" stroke-width="2.48277"/>
<path d="M12.7505 26.6726H18.2672C22.1415 26.6726 24.0794 26.6726 25.4709 25.7602C26.0716 25.3669 26.5887 24.859 26.9929 24.2656C27.9227 22.9001 27.9227 20.997 27.9227 17.1934C27.9227 13.3898 27.9227 11.4868 26.9929 10.1212C26.5887 9.52785 26.0716 9.01996 25.4709 8.62661C24.5771 8.03944 23.4574 7.82964 21.7431 7.75516C20.925 7.75516 20.2211 7.14688 20.061 6.3586C19.9386 5.78119 19.6206 5.26374 19.1608 4.89371C18.701 4.52367 18.1275 4.32373 17.5373 4.32769H13.4804C12.2539 4.32769 11.1975 5.17804 10.9567 6.3586C10.7965 7.14688 10.0927 7.75516 9.27459 7.75516C7.56148 7.82964 6.44175 8.04068 5.54671 8.62661C4.94654 9.02008 4.4298 9.52797 4.02601 10.1212C3.09497 11.4868 3.09497 13.3886 3.09497 17.1934C3.09497 20.9983 3.09497 22.8988 4.02477 24.2656C4.42698 24.8565 4.94339 25.3642 5.54671 25.7602C6.9383 26.6726 8.8761 26.6726 12.7505 26.6726Z" stroke="white" stroke-width="2.48277"/>
<path d="M24.1984 13.0173H22.957" stroke="white" stroke-width="2.48277" stroke-linecap="round"/>
</svg>
