<svg width="34" height="33" viewBox="0 0 34 33" fill="none" xmlns="http://www.w3.org/2000/svg">
<rect x="0.96468" y="0.693684" width="31.8641" height="31.6124" rx="15.8062" stroke="white" stroke-width="1.11784"/>
<path d="M16.8955 19.63C18.9738 19.63 20.6514 17.9524 20.6514 15.8741V8.36225C20.6514 6.28397 18.9738 4.60632 16.8955 4.60632C14.8172 4.60632 13.1396 6.28397 13.1396 8.36225V15.8741C13.1396 17.9524 14.8172 19.63 16.8955 19.63ZM24.2947 15.8741C23.6812 15.8741 23.1679 16.3248 23.0677 16.9383C22.5544 19.8804 19.9879 22.134 16.8955 22.134C13.8031 22.134 11.2366 19.8804 10.7233 16.9383C10.6786 16.644 10.5306 16.3753 10.3058 16.1803C10.0809 15.9852 9.79394 15.8767 9.49632 15.8741C8.73261 15.8741 8.13166 16.5502 8.24434 17.3014C8.85781 21.0573 11.8626 23.9994 15.6435 24.5378V27.1419C15.6435 27.8305 16.2069 28.3939 16.8955 28.3939C17.5841 28.3939 18.1475 27.8305 18.1475 27.1419V24.5378C19.99 24.2752 21.7009 23.4319 23.0314 22.1306C24.362 20.8293 25.2431 19.1376 25.5467 17.3014C25.6719 16.5502 25.0584 15.8741 24.2947 15.8741Z" fill="white"/>
</svg>
