<svg width="28" height="28" viewBox="0 0 28 28" fill="none" xmlns="http://www.w3.org/2000/svg">
<path d="M5.14173 15.2698C5.84307 15.2698 6.41163 14.7012 6.41163 13.9999C6.41163 13.2985 5.84307 12.73 5.14173 12.73C4.44038 12.73 3.87183 13.2985 3.87183 13.9999C3.87183 14.7012 4.44038 15.2698 5.14173 15.2698Z" stroke="white" stroke-width="2.5398" stroke-linecap="round" stroke-linejoin="round"/>
<path d="M14.4542 15.2698C15.1556 15.2698 15.7241 14.7012 15.7241 13.9999C15.7241 13.2985 15.1556 12.73 14.4542 12.73C13.7529 12.73 13.1843 13.2985 13.1843 13.9999C13.1843 14.7012 13.7529 15.2698 14.4542 15.2698Z" stroke="white" stroke-width="2.5398" stroke-linecap="round" stroke-linejoin="round"/>
<path d="M23.767 15.2698C24.4683 15.2698 25.0369 14.7012 25.0369 13.9999C25.0369 13.2985 24.4683 12.73 23.767 12.73C23.0656 12.73 22.4971 13.2985 22.4971 13.9999C22.4971 14.7012 23.0656 15.2698 23.767 15.2698Z" stroke="white" stroke-width="2.5398" stroke-linecap="round" stroke-linejoin="round"/>
</svg>
