<svg width="19" height="24" viewBox="0 0 19 24" fill="none" xmlns="http://www.w3.org/2000/svg">
<path d="M8.27617 4.16209C8.10806 3.70443 7.77121 3.32844 7.3347 3.11124C6.89819 2.89405 6.39512 2.85211 5.92867 2.99403C3.71753 3.67578 2.17223 5.57331 2.50402 7.76855C2.87738 10.2044 3.70284 12.549 4.93786 14.6815C6.16151 16.8083 7.7661 18.6918 9.67148 20.2378C11.3849 21.624 13.7893 21.2422 15.4845 19.6515C15.8411 19.3168 16.0575 18.8593 16.09 18.3713C16.1225 17.8833 15.9686 17.4012 15.6595 17.0222L14.446 15.5382C14.2029 15.2398 13.8758 15.0213 13.5071 14.9111C13.1383 14.8009 12.745 14.804 12.378 14.9201L9.57831 15.8064L9.08972 15.3019C8.47437 14.6632 7.93591 13.9547 7.48534 13.1907C7.04898 12.4177 6.70861 11.5942 6.4718 10.7387L6.28318 10.0683L8.44206 8.07988C8.7277 7.81589 8.92808 7.47268 9.01755 7.09416C9.10702 6.71564 9.08151 6.31903 8.94428 5.95509L8.27617 4.16209ZM5.26056 0.821516C6.28126 0.509224 7.38275 0.599105 8.33932 1.07274C9.29589 1.54638 10.0351 2.36791 10.4055 3.36899L11.0713 5.15972C11.366 5.94632 11.4196 6.80288 11.2253 7.62008C11.031 8.43728 10.5977 9.17806 9.98054 9.7479L8.86702 10.7728C9.01018 11.1682 9.20335 11.6204 9.45332 12.059C9.7033 12.4908 9.99418 12.8839 10.2601 13.2044L11.6917 12.7499C12.4921 12.4972 13.35 12.4905 14.1542 12.7308C14.9584 12.971 15.672 13.4471 16.2026 14.0975L17.4162 15.5814C18.0906 16.4061 18.4267 17.4561 18.3567 18.5191C18.2867 19.5822 17.8157 20.579 17.0389 21.3081C14.7801 23.4283 11.0918 24.3078 8.24435 22.0035C6.12239 20.2824 4.33524 18.1856 2.97215 15.8177C1.5941 13.4393 0.673056 10.8242 0.256514 8.10715C-0.288886 4.48706 2.30858 1.73052 5.26056 0.823789" fill="white"/>
</svg>
